Coordinates
version=1
nRows=17
nColumns=41
inDegrees=yes

Units are S.I. units (second, meters, Newtons, ...)
If the header above contains a line with 'inDegrees', this indicates whether rotational values are in degrees (yes) or radians (no).

endheader
time	pelvis_tilt	pelvis_list	pelvis_rotation	pelvis_tx	pelvis_ty	pelvis_tz	hip_flexion_r	hip_adduction_r	hip_rotation_r	knee_angle_r	ankle_angle_r	subtalar_angle_r	mtp_angle_r	hip_flexion_l	hip_adduction_l	hip_rotation_l	knee_angle_l	ankle_angle_l	subtalar_angle_l	mtp_angle_l	L5_S1_Flex_Ext	L5_S1_Lat_Bending	L5_S1_axial_rotation	neck_flexion	neck_bending	neck_rotation	arm_flex_r	arm_add_r	arm_rot_r	elbow_flex_r	pro_sup_r	wrist_flex_r	wrist_dev_r	arm_flex_l	arm_add_l	arm_rot_l	elbow_flex_l	pro_sup_l	wrist_flex_l	wrist_dev_l
      8.80000000	     -1.38917670	      6.40002520	    -84.21995384	      0.14374479	      1.04872866	      0.00539242	      6.59682494	     -0.78429348	     -2.10216318	      1.79434517	     -2.09458235	    -12.94215638	      0.00000000	      5.89418571	     -1.59408096	     -6.39082358	      0.00000000	      3.51105429	     -2.00675051	      0.00000000	      0.03014404	     -0.52034319	     -1.53396930	      0.00000000	      0.00000000	      0.00000002	     32.56812620	    -17.00529550	    -30.81281314	    149.68459216	     59.20892776	      0.00000000	      0.00000000	     37.62703498	    -14.65904437	    -13.39959118	    143.69249535	     75.14991177	      0.00000000	      0.00000000
      8.82000000	     -1.38456084	      6.42118954	    -84.17212864	      0.14328533	      1.04870623	      0.00569103	      6.54649932	     -0.78251249	     -2.07616350	      1.70982184	     -2.08000158	    -12.95319849	      0.00000000	      5.83483413	     -1.61521250	     -6.41535270	      0.00000000	      3.54157266	     -2.15203041	      0.00000000	      0.02632806	     -0.59781555	     -1.37821264	      0.00000000	      0.00000000	      0.00000002	     33.16878683	    -16.97919035	    -31.05278675	    150.00035077	     59.33079566	      0.00000000	      0.00000000	     37.29028515	    -14.59402730	    -13.52231192	    144.97124820	     75.24926431	      0.00000000	      0.00000000
      8.84000000	     -1.41354481	      6.45457087	    -84.08379672	      0.14291226	      1.04852889	      0.00582639	      6.59367411	     -0.74718743	     -2.02834655	      1.77988888	     -2.08307742	    -12.97573432	      0.00000000	      5.81398786	     -1.67146722	     -6.35345146	      0.00000000	      3.47799565	     -2.36082969	      0.00000000	      0.02326436	     -0.64185899	     -1.58028512	      0.00000000	      0.00000000	      0.00000002	     34.04618591	    -16.66076357	    -31.19624809	    150.00035077	     59.61724549	      0.00000000	      0.00000000	     37.06486441	    -14.90710870	    -13.72688002	    146.44664411	     75.41067235	      0.00000000	      0.00000000
      8.86000000	     -1.37872097	      6.36940608	    -83.96221064	      0.14256965	      1.04841988	      0.00619743	      6.36571145	     -0.74540119	     -2.16834691	      1.59474528	     -1.96311282	    -13.08553851	      0.00000000	      5.67112199	     -1.67847302	     -6.41109443	      0.00000000	      3.47537805	     -2.43734938	      0.00000000	      0.02987417	     -0.80048683	     -1.45308651	      0.00000000	      0.00000000	      0.00000002	     34.64637161	    -16.73761138	    -31.17861917	    150.00035077	     59.67126867	      0.00000000	      0.00000000	     37.18900513	    -14.99200764	    -13.75515362	    146.71548019	     75.43884590	      0.00000000	      0.00000000
      8.88000000	     -1.37156545	      6.30119486	    -83.78066147	      0.14263298	      1.04826693	      0.00635363	      6.20588034	     -0.74653835	     -2.18044328	      1.52083448	     -1.90706987	    -13.12003760	      0.00000000	      5.58649622	     -1.68085911	     -6.44914407	      0.00000000	      3.46051010	     -2.51633837	      0.00000000	      0.02423971	     -0.80723751	     -1.56931260	      0.00000000	      0.00000000	      0.00000002	     35.65881159	    -16.92086095	    -31.16194631	    150.00035077	     59.74592882	      0.00000000	      0.00000000	     37.56987009	    -15.06409324	    -13.65759881	    147.03179340	     75.48536306	      0.00000000	      0.00000000
      8.90000000	     -1.41047727	      6.32497312	    -83.61210760	      0.14253410	      1.04816252	      0.00626154	      6.17107550	     -0.69863995	     -2.28140624	      1.44494707	     -1.85123607	    -13.19003520	      0.00000000	      5.64183739	     -1.73017065	     -6.43681594	      0.00000000	      3.41870394	     -2.57202656	      0.00000000	      0.02799404	     -0.78875640	     -1.71757268	      0.00000000	      0.00000000	      0.00000002	     36.68612448	    -17.05056702	    -31.06754992	    150.00035077	     59.83112436	      0.00000000	      0.00000000	     38.02289289	    -15.24786839	    -13.46435892	    147.14574599	     75.54181938	      0.00000000	      0.00000000
      8.92000000	     -1.43612198	      6.25981818	    -83.42999900	      0.14251126	      1.04841386	      0.00617625	      6.08571584	     -0.66411928	     -2.38439647	      1.47486443	     -1.82897753	    -13.24723868	      0.00000000	      5.61785474	     -1.76564128	     -6.41853110	      0.00000000	      3.35402044	     -2.60459667	      0.00000000	      0.02584177	     -0.76692454	     -1.98244646	      0.00000000	      0.00000000	      0.00000002	     37.61028813	    -17.20799212	    -30.94351163	    150.00035077	     59.90811360	      0.00000000	      0.00000000	     38.48968033	    -15.46282469	    -13.21799151	    147.00389939	     75.59677822	      0.00000000	      0.00000000
      8.94000000	     -1.46845971	      6.23411361	    -83.22257247	      0.14238221	      1.04867678	      0.00593405	      6.00043545	     -0.61687952	     -2.56516362	      1.38237125	     -1.79416331	    -13.33451653	      0.00000000	      5.66572541	     -1.80831085	     -6.34648517	      0.00000000	      3.27622427	     -2.59478124	      0.00000000	      0.02953384	     -0.73931720	     -2.18281419	      0.00000000	      0.00000000	      0.00000002	     38.62701247	    -17.32070476	    -30.75189093	    150.00035077	     59.98439019	      0.00000000	      0.00000000	     38.99155498	    -15.72902416	    -12.89823856	    146.58133988	     75.65727230	      0.00000000	      0.00000000
      8.96000000	     -1.51209540	      6.06964519	    -82.95634294	      0.14240962	      1.04905447	      0.00547041	      5.86345725	     -0.56069292	     -2.80898229	      1.47612337	     -1.90609922	    -13.38511425	      0.00000000	      5.58513370	     -1.86917559	     -6.06748465	      0.00000000	      3.19650202	     -2.65834787	      0.00000000	      0.03454526	     -0.60764352	     -2.48673819	      0.00000000	      0.00000000	      0.00000002	     39.56459193	    -17.15700317	    -29.92931607	    150.00035077	     60.22393510	      0.00000000	      0.00000000	     39.29834160	    -16.18199097	    -11.95426753	    145.49299306	     75.87654924	      0.00000000	      0.00000000
      8.98000000	     -1.50061674	      5.89519751	    -82.86947030	      0.14225043	      1.04939613	      0.00537269	      5.63042615	     -0.53314321	     -2.90720878	      1.41365589	     -1.85851973	    -13.44038609	      0.00000000	      5.43266235	     -1.89232328	     -6.13080440	      0.00000000	      3.13281356	     -2.67531342	      0.00000000	      0.02799828	     -0.70827475	     -2.52574965	      0.00000000	      0.00000000	      0.00000002	     40.24394257	    -17.40165416	    -29.88261359	    150.00035077	     60.25871067	      0.00000000	      0.00000000	     39.64880644	    -16.31380852	    -11.89189420	    145.34648803	     75.91355509	      0.00000000	      0.00000000
      9.00000000	     -1.50744425	      5.82215174	    -82.71027664	      0.14244203	      1.04978978	      0.00462094	      5.55575056	     -0.52987927	     -2.99116543	      1.39233861	     -1.91876709	    -13.43154851	      0.00000000	      5.44042333	     -1.89389010	     -6.08559140	      0.00000000	      3.07279698	     -2.65209750	      0.00000000	      0.03001042	     -0.60673793	     -2.43479051	      0.00000000	      0.00000000	      0.00000002	     41.29198014	    -17.56395070	    -29.73239477	    150.00035077	     60.31938467	      0.00000000	      0.00000000	     40.00007280	    -16.51841053	    -11.68222539	    144.76944859	     75.98726383	      0.00000000	      0.00000000
      9.02000000	     -1.54714644	      5.74317418	    -82.60672308	      0.14235826	      1.05042005	      0.00402949	      5.49950992	     -0.46995690	     -3.00559861	      1.43025707	     -1.92594109	    -13.43040521	      0.00000000	      5.41742580	     -1.95483507	     -6.08311719	      0.00000000	      3.06511712	     -2.65318459	      0.00000000	      0.04618203	     -0.75660372	     -2.30420380	      0.00000000	      0.00000000	      0.00000002	     41.42080937	    -17.57384132	    -29.71471000	    150.00035077	     60.32374502	      0.00000000	      0.00000000	     40.00882368	    -16.58494156	    -11.70464371	    144.74843115	     75.99104779	      0.00000000	      0.00000000
      9.04000000	     -1.44843215	      5.55920449	    -82.66547045	      0.14238596	      1.05094520	      0.00341964	      5.27523348	     -0.55402670	     -3.11042621	      1.33832962	     -1.95592964	    -13.41331560	      0.00000000	      5.23860868	     -1.86892676	     -6.05296261	      0.00000000	      3.00699401	     -2.64658757	      0.00000000	      0.03048693	     -0.79957856	     -1.79286975	      0.00000000	      0.00000000	      0.00000002	     42.48620165	    -17.85024622	    -29.72682452	    150.00035077	     60.34208859	      0.00000000	      0.00000000	     40.32885072	    -16.98826795	    -11.90479216	    144.38107833	     76.00895542	      0.00000000	      0.00000000
      9.06000000	     -1.46517821	      5.53265789	    -82.77367328	      0.14217896	      1.05095687	      0.00274403	      5.31884955	     -0.51888198	     -2.99336649	      1.35803727	     -2.01776806	    -13.28754726	      0.00000000	      5.26292518	     -1.90264575	     -6.15991748	      0.00000000	      2.98861120	     -2.71392317	      0.00000000	      0.02694049	     -0.90380059	     -1.24293764	      0.00000000	      0.00000000	      0.00000002	     43.35253809	    -18.11674883	    -29.63087951	    150.00035077	     60.36462456	      0.00000000	      0.00000000	     40.52749817	    -17.02866486	    -12.42323953	    143.97009464	     76.01156620	      0.00000000	      0.00000000
      9.08000000	     -1.43550980	      5.52628211	    -82.83861542	      0.14220222	      1.05075939	      0.00253885	      5.32726357	     -0.54117476	     -2.93983607	      1.33401308	     -2.02764615	    -13.21682164	      0.00000000	      5.28490442	     -1.87547307	     -6.17216058	      0.00000000	      2.96209655	     -2.70499629	      0.00000000	      0.02337356	     -1.04315285	     -0.35573803	      0.00000000	      0.00000000	      0.00000002	     43.97061213	    -18.43757489	    -29.36424400	    150.00035077	     60.37103943	      0.00000000	      0.00000000	     40.73835187	    -16.74017410	    -13.10527444	    144.19257028	     75.98989945	      0.00000000	      0.00000000
      9.10000000	     -1.45639212	      5.63150714	    -82.86109240	      0.14249287	      1.05035796	      0.00200619	      5.45334906	     -0.53481980	     -2.85164634	      1.28784084	     -1.98465486	    -13.15750073	      0.00000000	      5.44795798	     -1.86913385	     -6.27965505	      0.00000000	      2.96049585	     -2.69918670	      0.00000000	      0.02887290	     -1.12872158	      0.66854242	      0.00000000	      0.00000000	      0.00000002	     44.41819626	    -18.85090691	    -28.69744249	    148.88085561	     60.38501134	      0.00000000	      0.00000000	     41.02345453	    -16.03018966	    -13.87323499	    144.71355674	     75.93648023	      0.00000000	      0.00000000
      9.12000000	     -1.47768423	      5.57993629	    -82.88558852	      0.14270894	      1.05022089	      0.00118949	      5.41825043	     -0.50211802	     -2.73204097	      1.28046606	     -1.85141391	    -13.11617991	      0.00000000	      5.42616074	     -1.89509789	     -6.35986594	      0.00000000	      2.93001337	     -2.60164712	      0.00000000	      0.02242781	     -1.20294591	      1.69057815	      0.00000000	      0.00000000	      0.00000002	     44.69549491	    -19.20322112	    -27.11042399	    146.54686677	     60.54402047	      0.00000000	      0.00000000	     41.25483622	    -15.29456672	    -14.68988720	    145.06675815	     75.81972932	      0.00000000	      0.00000000
